# xmcd
#
# Track frame offsets:
#	150
#	7803
#	14783
#	21750
#	32055
#	43397
#	50598
#	64053
#	78825
#	91249
#	101840
#	105928
#	121812
#	133448
#	145759
#	157692
#	167950
#	183937
#	193281
#	201525
#	209610
#	217135
#	227210
#	240375
#	247565
#	255231
#	269503
#	288366
#	299915
#	310486
#	321112
#	329435
#	341610
#	344851
#
# Disc length: 4777 seconds
#
# Revision: 0
# Processed by: cddbd v1.5.2PL0 Copyright (c) Steve Scherf et al.
# Submitted via: audiograbber 1.83.01
#
DISCID=0d12a722
DTITLE=Diverse - Geht's Joahr wieder z'End
DYEAR=1970
DGENRE=Weihnacht
TTITLE0=Das klingt so herrlich
TTITLE1=Advent
TTITLE2=Is finster drauﬂt
TTITLE3=Der Wintertag
TTITLE4=A stadi Weis
TTITLE5=Was sagt den da Wind
TTITLE6=Niederberglandler
TTITLE7=Der Engel des Herrn
TTITLE8=Mozart Menuett
TTITLE9=Grueaﬂ enk Gott, Hirtabuam
TTITLE10=Der Adventkranz
TTITLE11=Maria auf dem Berg
TTITLE12=A schoene Weis
TTITLE13=Ehre
TTITLE14=Alte steirische Taenze
TTITLE15=Lei dort
TTITLE16=Gloria
TTITLE17=Laufet ihr Hirten
TTITLE18=Es ist fuer uns eine Zeit angekommen
TTITLE19=Hirtenmusik aus dem Pongau
TTITLE20=Weihnachten in Vodahaus
TTITLE21=Weihnacht, wie bist du schoen
TTITLE22=Bauernmenuett
TTITLE23=Kemmt's her
TTITLE24=In Fritzl seiner
TTITLE25=Du bist in kolter Winternacht
TTITLE26=Vom Himmel hoch
TTITLE27=Still, o Himmel
TTITLE28=Deutscher
TTITLE29=Der gueldene Rosenkranz
TTITLE30=Faellt vom Himmel a Stern
TTITLE31=Still, still
TTITLE32=Heiliger Abend
TTITLE33=Stille Nacht, heilige Nacht
EXTD=
EXTT0=
EXTT1=
EXTT2=
EXTT3=
EXTT4=
EXTT5=
EXTT6=
EXTT7=
EXTT8=
EXTT9=
EXTT10=
EXTT11=
EXTT12=
EXTT13=
EXTT14=
EXTT15=
EXTT16=
EXTT17=
EXTT18=
EXTT19=
EXTT20=
EXTT21=
EXTT22=
EXTT23=
EXTT24=
EXTT25=
EXTT26=
EXTT27=
EXTT28=
EXTT29=
EXTT30=
EXTT31=
EXTT32=
EXTT33=
PLAYORDER=
